<?xml version="1.0" encoding="UTF-8" standalone="no"?>
<!-- Created with Inkscape (http://www.inkscape.org/) -->
<svg
   xmlns:xml="http://www.w3.org/XML/1998/namespace"
   xmlns:dc="http://purl.org/dc/elements/1.1/"
   xmlns:cc="http://web.resource.org/cc/"
   xmlns:rdf="http://www.w3.org/1999/02/22-rdf-syntax-ns#"
   xmlns:svg="http://www.w3.org/2000/svg"
   xmlns="http://www.w3.org/2000/svg"
   xmlns:sodipodi="http://inkscape.sourceforge.net/DTD/sodipodi-0.dtd"
   xmlns:inkscape="http://www.inkscape.org/namespaces/inkscape"
   sodipodi:docname="python_script.svg"
   sodipodi:docbase="/media/WD_USB_2/wikimedia_commons/svg"
   inkscape:version="0.41"
   sodipodi:version="0.32"
   id="svg1297"
   height="3.0000000cm"
   width="11.000000cm">
  <defs
     id="defs3" />
  <sodipodi:namedview
     inkscape:window-y="110"
     inkscape:window-x="390"
     inkscape:window-height="584"
     inkscape:window-width="640"
     inkscape:document-units="cm"
     inkscape:current-layer="layer1"
     inkscape:cy="100.00000"
     inkscape:cx="244.48980"
     inkscape:zoom="1.0000000"
     inkscape:pageshadow="2"
     inkscape:pageopacity="0.0"
     borderopacity="1.0"
     bordercolor="#666666"
     pagecolor="#ffffff"
     id="base" />
  <metadata
     id="metadata4">
    <rdf:RDF
       id="RDF5">
      <cc:Work
         id="Work6"
         rdf:about="">
        <dc:format
           id="format7">image/svg+xml</dc:format>
        <dc:type
           rdf:resource="http://purl.org/dc/dcmitype/StillImage"
           id="type9" />
      </cc:Work>
    </rdf:RDF>
  </metadata>
  <g
     inkscape:groupmode="layer"
     inkscape:label="Layer 1"
     id="layer1">
    <path
       id="text1307"
       d="M 6.8301706,17.148502 L 7.0393357,13.184414 L 8.2768945,13.184414 L 8.1025911,17.092141 C 8.1025911,17.110928 8.1025911,17.129715 8.1025911,17.129715 C 8.1025911,17.505457 8.3117562,17.730903 8.6080729,17.730903 C 8.9566806,17.730903 9.1484153,17.524245 9.1658456,17.148502 L 9.3575803,13.184414 L 10.612570,13.184414 C 10.978609,13.184414 11.170343,12.958968 11.170343,12.564438 C 11.170343,12.169908 10.978609,11.944462 10.612570,11.944462 L 9.4273017,11.944462 L 9.5318847,9.7651532 L 10.612570,9.7651532 C 10.978609,9.7651532 11.170343,9.5397074 11.170343,9.1451779 C 11.170343,8.7506484 10.978609,8.5439886 10.612570,8.5439886 L 9.5667454,8.5439886 L 9.7759104,4.6174758 C 9.7759104,4.5986887 9.7759104,4.5799017 9.7759104,4.5799017 C 9.7759104,4.2041582 9.5493141,3.9974994 9.2355670,3.9974994 C 8.9218199,3.9974994 8.7300853,4.1853712 8.7126549,4.5611146 L 8.5034899,8.5439886 L 7.2659310,8.5439886 L 7.4402354,4.6174758 C 7.4402354,4.5986887 7.4402354,4.5799017 7.4402354,4.5799017 C 7.4402354,4.2041582 7.2310694,3.9974994 6.9173223,3.9974994 C 6.6035753,3.9974994 6.4118406,4.1853712 6.3944102,4.5611146 L 6.1852452,8.5439886 L 4.9128257,8.5439886 C 4.5467876,8.5439886 4.3550520,8.7506484 4.3550520,9.1451779 C 4.3550520,9.5397074 4.5467876,9.7651532 4.9128257,9.7651532 L 6.1329542,9.7651532 L 6.0458025,11.944462 L 4.9128257,11.944462 C 4.5467876,11.944462 4.3550520,12.169908 4.3550520,12.564438 C 4.3550520,12.958968 4.5467876,13.184414 4.9128257,13.184414 L 5.9760802,13.184414 L 5.7843465,17.092141 C 5.7843465,17.110928 5.7843465,17.129715 5.7843465,17.148502 C 5.7843465,17.505457 5.9760812,17.730903 6.2723979,17.730903 C 6.6210056,17.730903 6.8127403,17.524245 6.8301706,17.148502 M 7.0916267,11.944462 L 7.1962097,9.7651532 L 8.4686292,9.7651532 L 8.3466168,11.944462 L 7.0916267,11.944462 M 16.932184,7.0785921 L 14.038735,15.344936 C 13.969014,15.344936 13.899291,15.344936 13.829570,15.344936 C 13.254367,15.344936 13.027771,15.495234 13.027771,15.983699 C 13.027771,16.547313 13.271797,16.641249 13.916723,16.641249 L 16.147815,16.641249 C 16.810169,16.641249 17.141348,16.584887 17.141348,15.983699 C 17.141348,15.457660 16.827600,15.344936 16.165245,15.344936 L 15.346016,15.344936 L 16.078093,13.165627 L 20.400835,13.165627 L 21.220064,15.344936 L 20.435696,15.344936 C 19.773340,15.344936 19.477023,15.457660 19.477023,15.983699 C 19.477023,16.584887 19.808202,16.641249 20.487987,16.641249 L 22.806232,16.641249 C 23.364005,16.641249 23.573170,16.509739 23.573170,15.983699 C 23.573170,15.476447 23.364005,15.344936 22.771371,15.344936 C 22.719080,15.344936 22.684219,15.344936 22.631928,15.344936 L 19.302719,6.3834675 C 19.076124,5.7822792 18.849528,5.7634911 18.361477,5.7634911 L 15.938650,5.7634911 C 15.136852,5.7634911 14.753382,5.7634922 14.753382,6.4210416 C 14.753382,6.9282935 15.049699,7.0785921 15.694624,7.0785921 L 16.932184,7.0785921 M 16.496423,11.944462 L 18.134882,7.0785921 L 19.982505,11.944462 L 16.496423,11.944462 M 40.012226,15.344936 L 40.012226,8.5439886 C 40.012226,8.3185438 39.855352,8.1682462 39.524175,8.1682462 L 37.031626,8.1682462 C 36.578436,8.1682462 36.351840,8.3749050 36.351840,8.8070086 C 36.351840,9.2391133 36.595866,9.4645591 37.066486,9.4645591 L 38.722375,9.4645591 L 38.722375,15.344936 L 36.125244,15.344936 C 35.654624,15.344936 35.410597,15.551595 35.410597,15.983699 C 35.410597,16.415802 35.637194,16.641249 36.090384,16.641249 L 42.696509,16.641249 C 43.201991,16.641249 43.393725,16.509739 43.393725,15.983699 C 43.393725,15.532808 43.184560,15.344936 42.748801,15.344936 L 40.012226,15.344936 M 38.426059,5.5192582 C 38.426059,6.2707440 38.600364,6.4210416 39.315010,6.4210416 C 40.134239,6.4210416 40.186531,6.2143818 40.186531,5.2562382 C 40.186531,4.2980946 40.099377,4.0162865 39.315010,4.0162865 C 38.530642,4.0162865 38.426059,4.2980956 38.426059,5.5192582 M 45.983232,15.983699 C 45.983232,16.566100 46.209827,16.866695 46.610726,16.866695 C 46.802460,16.866695 47.081348,16.716398 47.482246,16.434590 C 48.440918,16.697610 49.295010,16.847908 50.061947,16.847908 C 52.188455,16.847908 53.391156,15.701890 53.391156,14.123772 C 53.391156,12.320207 52.223316,11.606294 49.974796,11.549932 C 48.301477,11.512358 47.325372,11.418421 47.325372,10.441491 C 47.325372,9.7087931 47.970299,9.0888167 49.103275,9.0888167 C 49.992225,9.0888167 50.619721,9.3142626 51.264645,9.9342379 C 51.770127,10.422703 51.944432,10.892383 52.327901,10.892383 C 52.746230,10.892383 52.903104,10.573000 52.903104,9.9718120 L 52.903104,8.9009450 C 52.903104,8.2809697 52.711369,7.9803745 52.327901,7.9803745 C 51.874710,7.9803745 51.700406,8.3373309 51.456380,8.3373309 C 51.212354,8.3373309 50.532567,7.9240133 49.295009,7.9240133 C 47.185932,7.9240133 46.018092,8.9760953 46.018092,10.497852 C 46.018092,12.132332 47.255654,13.034117 49.573896,13.034117 C 49.817921,13.034117 49.974796,13.034117 50.061947,13.034117 C 51.351796,13.034117 51.979292,13.297138 51.979292,14.236494 C 51.979292,15.063128 51.212353,15.664318 49.974796,15.664318 C 48.824389,15.664318 47.848285,15.213425 47.395095,14.574663 C 47.063917,14.104985 47.116207,13.597732 46.593295,13.597732 C 46.140106,13.597732 45.983232,13.860752 45.983232,14.349218 L 45.983232,15.983699 M 67.477107,15.344936 C 67.407385,15.344936 67.355094,15.344936 67.302802,15.344936 C 66.605587,15.344936 66.309269,15.457660 66.309269,15.983699 C 66.309269,16.415802 66.535865,16.641249 66.989055,16.641249 L 69.255009,16.641249 C 69.760490,16.641249 69.934795,16.509739 69.934795,15.983699 C 69.934795,15.476447 69.708199,15.326149 69.115565,15.326149 C 69.010983,15.326149 68.888970,15.344936 68.749527,15.344936 L 68.749527,11.531145 C 68.749527,10.159685 69.934796,9.3330496 70.963189,9.3330496 C 72.078734,9.3330496 72.758521,10.065749 72.758521,11.531145 L 72.758521,15.344936 C 72.601647,15.344936 72.514496,15.344936 72.427344,15.344936 C 71.817280,15.344936 71.590684,15.476447 71.590684,15.983699 C 71.590684,16.509739 71.764988,16.641249 72.270470,16.641249 L 74.536424,16.641249 C 74.989613,16.641249 75.216210,16.415802 75.216210,15.983699 C 75.216210,15.514021 74.954753,15.344936 74.414410,15.344936 C 74.292398,15.344936 74.170385,15.344936 74.048371,15.344936 L 74.048371,11.192977 C 74.048371,9.0700317 72.880533,7.9240133 71.259505,7.9240133 C 70.370556,7.9240133 69.586185,8.3373309 68.766957,9.1639650 L 68.766957,5.0120053 C 68.766957,4.7865605 68.610083,4.6362629 68.278906,4.6362629 L 66.989055,4.6362629 C 66.535865,4.6362629 66.309269,4.8617087 66.309269,5.2938123 C 66.309269,5.7634911 66.553296,5.9325758 67.093638,5.9325758 C 67.215650,5.9325758 67.355094,5.9513628 67.477107,5.9513628 L 67.477107,15.344936 M 78.328628,11.606294 C 78.659801,10.084537 79.757923,9.1827520 81.256936,9.1827520 C 82.633939,9.1827520 83.714628,10.140898 83.871497,11.606294 L 78.328628,11.606294 M 78.293769,12.808671 L 84.010941,12.808671 C 85.056762,12.808671 85.422803,12.808671 85.422803,11.944462 C 85.422803,9.8966658 83.836638,7.9240133 81.256936,7.9240133 C 78.624942,7.9240133 76.812181,9.7463693 76.812181,12.376567 C 76.812181,15.119487 78.450638,16.866695 81.082633,16.866695 C 82.233039,16.866695 83.470597,16.566100 84.638438,15.946125 C 85.143913,15.683105 85.387944,15.401297 85.387944,15.025554 C 85.387944,14.687386 85.126489,14.424366 84.795307,14.424366 C 84.028376,14.424366 82.930253,15.570381 81.204643,15.570381 C 79.444175,15.570381 78.380921,14.574661 78.293769,12.808671 M 92.439631,15.344936 L 92.439631,8.5439886 C 92.439631,8.3185438 92.282762,8.1682462 91.951580,8.1682462 L 89.459030,8.1682462 C 89.005847,8.1682462 88.779251,8.3749050 88.779251,8.8070086 C 88.779251,9.2391133 89.023272,9.4645591 89.493898,9.4645591 L 91.149781,9.4645591 L 91.149781,15.344936 L 88.552654,15.344936 C 88.082027,15.344936 87.838007,15.551595 87.838007,15.983699 C 87.838007,16.415802 88.064603,16.641249 88.517796,16.641249 L 95.123919,16.641249 C 95.629395,16.641249 95.821133,16.509739 95.821133,15.983699 C 95.821133,15.532808 95.611970,15.344936 95.176212,15.344936 L 92.439631,15.344936 M 90.853467,5.5192582 C 90.853467,6.2707440 91.027770,6.4210416 91.742418,6.4210416 C 92.561642,6.4210416 92.613935,6.2143818 92.613935,5.2562382 C 92.613935,4.2980946 92.526783,4.0162865 91.742418,4.0162865 C 90.958053,4.0162865 90.853467,4.2980956 90.853467,5.5192582 M 105.59197,16.152783 L 105.59197,9.4645591 C 105.64426,9.4645591 105.69655,9.4645591 105.74885,9.4645591 C 106.46349,9.4645591 106.75981,9.3330486 106.75981,8.8070086 C 106.75981,8.3749050 106.53321,8.1682462 106.08002,8.1682462 L 104.79017,8.1682462 C 104.45899,8.1682462 104.30212,8.2809697 104.30212,8.5439886 L 104.30212,9.2015391 C 103.48289,8.5064155 102.66366,8.1494591 101.79214,8.1494591 C 99.735349,8.1494591 98.044599,9.8215176 98.044599,12.188695 C 98.044599,14.593447 99.613339,16.265506 101.72241,16.265506 C 102.82054,16.265506 103.62234,15.870975 104.31955,15.006767 L 104.31955,16.115209 C 104.31955,18.012708 103.77921,18.876920 102.00130,18.876920 C 101.54811,18.876920 101.07749,18.745409 100.57201,18.745409 C 100.17111,18.745409 99.839935,19.083578 99.839935,19.459321 C 99.839935,20.060509 100.45000,20.304742 101.70499,20.304742 C 103.29115,20.304742 104.44156,19.797489 105.06906,18.914494 C 105.57454,18.200583 105.59197,17.392734 105.59197,16.359442 C 105.59197,16.284293 105.59197,16.227932 105.59197,16.152783 M 101.89672,9.5209203 C 103.39574,9.5209203 104.42414,10.648151 104.42414,12.188695 C 104.42414,13.748027 103.37831,14.856471 101.89672,14.856471 C 100.39770,14.856471 99.369308,13.729240 99.369308,12.188695 C 99.369308,10.610576 100.41514,9.5209203 101.89672,9.5209203 M 109.41903,15.344936 C 109.34931,15.344936 109.29702,15.344936 109.24473,15.344936 C 108.54751,15.344936 108.25119,15.457660 108.25119,15.983699 C 108.25119,16.415802 108.47779,16.641249 108.93098,16.641249 L 111.19693,16.641249 C 111.70242,16.641249 111.87672,16.509739 111.87672,15.983699 C 111.87672,15.476447 111.65013,15.326149 111.05749,15.326149 C 110.95291,15.326149 110.83089,15.344936 110.69146,15.344936 L 110.69146,11.531145 C 110.69146,10.159685 111.87672,9.3330496 112.90512,9.3330496 C 114.02066,9.3330496 114.70045,10.065749 114.70045,11.531145 L 114.70045,15.344936 C 114.54358,15.344936 114.45642,15.344936 114.36927,15.344936 C 113.75921,15.344936 113.53261,15.476447 113.53261,15.983699 C 113.53261,16.509739 113.70692,16.641249 114.21239,16.641249 L 116.47835,16.641249 C 116.93154,16.641249 117.15814,16.415802 117.15814,15.983699 C 117.15814,15.514021 116.89668,15.344936 116.35634,15.344936 C 116.23433,15.344936 116.11231,15.344936 115.99030,15.344936 L 115.99030,11.192977 C 115.99030,9.0700317 114.82246,7.9240133 113.20143,7.9240133 C 112.31248,7.9240133 111.52812,8.3373309 110.70888,9.1639650 L 110.70888,5.0120053 C 110.70888,4.7865605 110.55201,4.6362629 110.22083,4.6362629 L 108.93098,4.6362629 C 108.47779,4.6362629 108.25119,4.8617087 108.25119,5.2938123 C 108.25119,5.7634911 108.49522,5.9325758 109.03557,5.9325758 C 109.15758,5.9325758 109.29702,5.9513628 109.41903,5.9513628 L 109.41903,15.344936 M 125.42996,8.6754991 L 122.08331,8.6754991 L 122.08331,6.8155721 C 122.08331,5.9137897 122.01360,5.5380453 121.40353,5.5380453 C 120.95034,5.5380453 120.74117,5.8010663 120.74117,6.3083182 C 120.74117,6.5525511 120.74117,6.7216357 120.74117,6.7967840 L 120.74117,8.6754991 L 119.79994,8.6754991 C 118.98070,8.6754991 118.63210,8.7318614 118.63210,9.3330496 C 118.63210,9.7839403 118.84126,9.9718120 119.31189,9.9718120 L 120.74117,9.9718120 L 120.74117,13.034117 C 120.74117,13.128053 120.74117,13.221988 120.74117,13.315924 C 120.74117,14.161345 120.75861,14.894045 121.05492,15.438872 C 121.54297,16.359441 122.44936,16.810333 123.75663,16.810333 C 124.55843,16.810333 125.44738,16.566100 126.51064,16.115209 C 127.13813,15.852189 127.45188,15.589168 127.45188,15.157065 C 127.45188,14.818896 127.17299,14.499514 126.85925,14.499514 C 126.17946,14.499514 125.04648,15.476446 123.66948,15.476446 C 122.17047,15.476446 122.06589,14.499513 122.06589,13.034117 L 122.06589,9.9718120 L 125.51711,9.9718120 C 125.98773,9.9718120 126.23176,9.7651532 126.23176,9.3330496 C 126.23176,8.8633709 125.97030,8.6754991 125.42996,8.6754991 M 143.97809,16.641249 C 144.18726,16.641249 144.39642,16.641249 144.58816,16.641249 C 145.65141,16.641249 146.57522,16.584887 147.42932,15.908550 C 148.14395,15.326149 148.54486,14.461939 148.54486,13.503795 C 148.54486,12.188696 147.96965,11.343273 146.73209,10.873595 C 147.49903,10.403917 147.88250,9.6712169 147.88250,8.7130733 C 147.88250,6.8343602 146.64494,5.7634911 144.18726,5.7634911 L 140.21312,5.7634911 C 139.82966,5.7634911 139.62048,5.9889380 139.62048,6.4210416 C 139.62048,7.0222299 139.91681,7.0785921 140.64888,7.0785921 L 140.92777,7.0785921 L 140.92777,15.344936 L 140.63145,15.344936 C 139.88195,15.344936 139.56820,15.363723 139.56820,15.983699 C 139.56820,16.415802 139.75993,16.641249 140.16083,16.641249 L 143.97809,16.641249 M 142.26991,10.460278 L 142.26991,7.0785921 L 144.37899,7.0785921 C 145.72113,7.0785921 146.41834,7.6985685 146.41834,8.7694345 C 146.41834,9.9342369 145.63398,10.460278 144.04781,10.460278 L 142.26991,10.460278 M 142.26991,15.344936 L 142.26991,11.587507 L 144.23954,11.587507 C 146.10460,11.587507 147.06327,11.963252 147.06327,13.466221 C 147.06327,14.931618 146.10460,15.344936 144.15239,15.344936 L 142.26991,15.344936 M 165.83800,15.344936 L 165.83800,8.5439886 C 165.83800,8.3185438 165.68113,8.1682462 165.34995,8.1682462 L 162.85740,8.1682462 C 162.40422,8.1682462 162.17762,8.3749050 162.17762,8.8070086 C 162.17762,9.2391133 162.42164,9.4645591 162.89227,9.4645591 L 164.54815,9.4645591 L 164.54815,15.344936 L 161.95102,15.344936 C 161.48041,15.344936 161.23638,15.551595 161.23638,15.983699 C 161.23638,16.415802 161.46297,16.641249 161.91617,16.641249 L 168.52229,16.641249 C 169.02776,16.641249 169.21950,16.509739 169.21950,15.983699 C 169.21950,15.532808 169.01034,15.344936 168.57458,15.344936 L 165.83800,15.344936 M 164.25184,5.5192582 C 164.25184,6.2707440 164.42614,6.4210416 165.14079,6.4210416 C 165.96002,6.4210416 166.01230,6.2143818 166.01230,5.2562382 C 166.01230,4.2980946 165.92515,4.0162865 165.14079,4.0162865 C 164.35642,4.0162865 164.25184,4.2980956 164.25184,5.5192582 M 171.80901,15.983699 C 171.80901,16.566100 172.03561,16.866695 172.43651,16.866695 C 172.62824,16.866695 172.90712,16.716398 173.30802,16.434590 C 174.26670,16.697610 175.12079,16.847908 175.88772,16.847908 C 178.01423,16.847908 179.21693,15.701890 179.21693,14.123772 C 179.21693,12.320207 178.04909,11.606294 175.80057,11.549932 C 174.12726,11.512358 173.15115,11.418421 173.15115,10.441491 C 173.15115,9.7087931 173.79607,9.0888167 174.92906,9.0888167 C 175.81801,9.0888167 176.44550,9.3142626 177.09042,9.9342379 C 177.59591,10.422703 177.77021,10.892383 178.15368,10.892383 C 178.57201,10.892383 178.72888,10.573000 178.72888,9.9718120 L 178.72888,8.9009450 C 178.72888,8.2809697 178.53715,7.9803745 178.15368,7.9803745 C 177.70049,7.9803745 177.52618,8.3373309 177.28216,8.3373309 C 177.03813,8.3373309 176.35834,7.9240133 175.12078,7.9240133 C 173.01171,7.9240133 171.84387,8.9760953 171.84387,10.497852 C 171.84387,12.132332 173.08144,13.034117 175.39967,13.034117 C 175.64370,13.034117 175.80057,13.034117 175.88772,13.034117 C 177.17758,13.034117 177.80507,13.297138 177.80507,14.236494 C 177.80507,15.063128 177.03813,15.664318 175.80057,15.664318 C 174.65017,15.664318 173.67406,15.213425 173.22087,14.574663 C 172.88970,14.104985 172.94198,13.597732 172.41907,13.597732 C 171.96589,13.597732 171.80901,13.860752 171.80901,14.349218 L 171.80901,15.983699 M 195.67342,15.344936 L 195.67342,11.549932 C 196.80639,10.159685 197.76507,9.4269850 198.70632,9.4269850 C 199.36867,9.4269850 199.73471,9.9905991 200.18790,9.9905991 C 200.55394,9.9905991 200.93740,9.5772815 200.93740,9.1263908 C 200.93740,8.4500543 200.30991,7.9428004 199.24665,7.9428004 C 197.88708,7.9428004 196.73668,8.6567131 195.67342,10.103323 L 195.67342,8.5439886 C 195.67342,8.2809697 195.51654,8.1682462 195.20281,8.1682462 L 193.26802,8.1682462 C 192.81483,8.1682462 192.58824,8.3749050 192.58824,8.8070086 C 192.58824,9.2766874 192.83227,9.4645591 193.39003,9.4645591 C 193.47719,9.4645591 193.63406,9.4645591 193.82580,9.4645591 L 194.40101,9.4645591 L 194.40101,15.344936 L 192.90198,15.344936 C 192.43137,15.344936 192.18734,15.551595 192.18734,15.983699 C 192.18734,16.415802 192.43137,16.641249 192.88456,16.641249 L 198.44486,16.641249 C 198.95034,16.641249 199.14208,16.509739 199.14208,15.983699 C 199.14208,15.532808 198.93290,15.344936 198.49714,15.344936 L 195.67342,15.344936 M 208.93034,15.476446 L 209.01749,16.040060 C 209.08721,16.434590 209.29637,16.641249 209.61012,16.641249 L 210.95227,16.641249 C 211.40546,16.641249 211.63206,16.415802 211.63206,15.983699 C 211.63206,15.438872 211.33573,15.344936 210.62108,15.344936 L 210.18533,15.344936 L 210.18533,11.192977 C 210.18533,8.9760953 209.17436,7.9428004 206.99556,7.9428004 C 205.07822,7.9428004 203.82323,8.6003509 203.82323,9.2391133 C 203.82323,9.7087920 204.08469,10.009386 204.39844,10.009386 C 205.06079,10.009386 205.75800,9.2391133 206.96070,9.2391133 C 208.26798,9.2391133 208.87805,9.8966648 208.87805,11.305699 C 208.87805,11.324487 208.87805,11.343274 208.87805,11.362061 C 208.18083,11.174190 207.51847,11.080254 206.85612,11.080254 C 204.32871,11.080254 202.91685,12.226272 202.91685,14.123772 C 202.91685,15.739465 204.03239,16.866695 205.74057,16.866695 C 206.90841,16.866695 208.00652,16.378228 208.93034,15.476446 M 208.87805,12.583226 L 208.87805,13.578945 C 208.87805,14.405578 207.48361,15.457659 205.94974,15.457659 C 204.95620,15.457659 204.27642,14.837682 204.27642,14.029835 C 204.27642,12.996543 205.26995,12.263844 207.08271,12.263844 C 207.71021,12.263844 208.30285,12.376567 208.87805,12.583226 M 214.46558,12.526864 C 214.46558,10.704513 215.54627,9.5021332 217.14987,9.5021332 C 218.73604,9.5021332 219.83415,10.742087 219.83415,12.432928 C 219.83415,14.123770 218.70117,15.401298 217.13244,15.401298 C 215.61599,15.401298 214.46558,14.255280 214.46558,12.526864 M 220.04331,16.641249 L 221.66434,16.641249 C 222.03038,16.641249 222.27441,16.397015 222.27441,15.983699 C 222.27441,15.514021 222.03038,15.344936 221.49004,15.344936 C 221.36803,15.344936 221.22859,15.344936 221.10657,15.344936 L 221.10657,5.0120053 C 221.10657,4.7489863 220.94970,4.6362629 220.61851,4.6362629 L 218.87548,4.6362629 C 218.42229,4.6362629 218.19569,4.8617087 218.19569,5.2938123 C 218.19569,5.8950006 218.56173,5.9513628 219.36353,5.9513628 L 219.81672,5.9513628 L 219.81672,9.4645591 C 219.15437,8.5815638 218.21313,8.1494591 217.04528,8.1494591 C 214.74447,8.1494591 213.00143,10.065750 213.00143,12.489290 C 213.00143,15.063126 214.63989,16.866695 216.78383,16.866695 C 217.98653,16.866695 219.03235,16.340654 219.71214,15.420085 L 219.71214,16.171570 C 219.71214,16.490952 219.78186,16.641249 220.04331,16.641249 M 228.75089,15.344936 L 228.75089,8.5439886 C 228.75089,8.3185438 228.59402,8.1682462 228.26284,8.1682462 L 225.77030,8.1682462 C 225.31711,8.1682462 225.09051,8.3749050 225.09051,8.8070086 C 225.09051,9.2391133 225.33453,9.4645591 225.80516,9.4645591 L 227.46105,9.4645591 L 227.46105,15.344936 L 224.86391,15.344936 C 224.39330,15.344936 224.14927,15.551595 224.14927,15.983699 C 224.14927,16.415802 224.37586,16.641249 224.82905,16.641249 L 231.43518,16.641249 C 231.94066,16.641249 232.13239,16.509739 232.13239,15.983699 C 232.13239,15.532808 231.92323,15.344936 231.48747,15.344936 L 228.75089,15.344936 M 227.16473,5.5192582 C 227.16473,6.2707440 227.33903,6.4210416 228.05368,6.4210416 C 228.87291,6.4210416 228.92520,6.2143818 228.92520,5.2562382 C 228.92520,4.2980946 228.83804,4.0162865 228.05368,4.0162865 C 227.26931,4.0162865 227.16473,4.2980956 227.16473,5.5192582 M 236.29064,13.259562 L 236.29064,8.8633709 C 236.29064,8.8257967 236.29064,8.8070086 236.29064,8.7694345 C 236.29064,8.3561179 236.27320,8.1682462 235.80259,8.1682462 L 234.51274,8.1682462 C 234.05954,8.1682462 233.83295,8.3749050 233.83295,8.8070086 C 233.83295,9.2766874 234.07698,9.4645591 234.61731,9.4645591 C 234.73933,9.4645591 234.87878,9.4645591 235.00079,9.4645591 L 235.00079,13.597732 C 235.00079,15.739464 235.94203,16.829121 237.80709,16.829121 C 238.83547,16.829121 239.56755,16.397015 240.45650,15.645530 L 240.45650,16.265506 C 240.45650,16.490952 240.61338,16.641249 240.94456,16.641249 L 242.23441,16.641249 C 242.68760,16.641249 242.91420,16.415802 242.91420,15.983699 C 242.91420,15.514021 242.67017,15.344936 242.12982,15.344936 C 242.00781,15.344936 241.86837,15.344936 241.74636,15.344936 L 241.74636,9.0512415 C 241.74636,8.5064155 241.74636,8.1682462 241.15372,8.1682462 L 239.34096,8.1682462 C 238.87034,8.1682462 238.66117,8.3561179 238.66117,8.8070086 C 238.66117,9.2579003 238.83548,9.4645591 239.28866,9.4645591 L 240.45650,9.4645591 L 240.45650,13.259562 C 240.45650,14.612236 239.35839,15.476446 238.20799,15.476446 C 236.88328,15.476446 236.29064,14.762533 236.29064,13.259562 M 245.20738,15.983699 C 245.20738,16.566100 245.43398,16.866695 245.83488,16.866695 C 246.02661,16.866695 246.30549,16.716398 246.70639,16.434590 C 247.66507,16.697610 248.51916,16.847908 249.28609,16.847908 C 251.41260,16.847908 252.61530,15.701890 252.61530,14.123772 C 252.61530,12.320207 251.44746,11.606294 249.19894,11.549932 C 247.52563,11.512358 246.54952,11.418421 246.54952,10.441491 C 246.54952,9.7087931 247.19445,9.0888167 248.32743,9.0888167 C 249.21638,9.0888167 249.84387,9.3142626 250.48879,9.9342379 C 250.99428,10.422703 251.16858,10.892383 251.55205,10.892383 C 251.97038,10.892383 252.12725,10.573000 252.12725,9.9718120 L 252.12725,8.9009450 C 252.12725,8.2809697 251.93552,7.9803745 251.55205,7.9803745 C 251.09887,7.9803745 250.92455,8.3373309 250.68053,8.3373309 C 250.43650,8.3373309 249.75672,7.9240133 248.51916,7.9240133 C 246.41008,7.9240133 245.24224,8.9760953 245.24224,10.497852 C 245.24224,12.132332 246.47981,13.034117 248.79804,13.034117 C 249.04207,13.034117 249.19894,13.034117 249.28609,13.034117 C 250.57595,13.034117 251.20344,13.297138 251.20344,14.236494 C 251.20344,15.063128 250.43650,15.664318 249.19894,15.664318 C 248.04854,15.664318 247.07243,15.213425 246.61924,14.574663 C 246.28807,14.104985 246.34036,13.597732 245.81744,13.597732 C 245.36426,13.597732 245.20738,13.860752 245.20738,14.349218 L 245.20738,15.983699"
       style="font-size:18.096075;font-style:normal;font-variant:normal;font-weight:normal;font-stretch:normal;fill:#0000ff;fill-opacity:1.0000000;stroke:none;stroke-width:1.0000000px;stroke-linecap:butt;stroke-linejoin:miter;stroke-opacity:1.0000000;font-family:Courier 10 Pitch;text-anchor:start;writing-mode:lr-tb" />
    <path
       id="text1311"
       d="M 6.8976371,48.354622 C 6.8976371,46.532272 7.9783239,45.329893 9.5819189,45.329893 C 11.168083,45.329893 12.266200,46.569846 12.266200,48.260686 C 12.266200,49.951526 11.133222,51.229053 9.5644885,51.229053 C 8.0480452,51.229053 6.8976371,50.083036 6.8976371,48.354622 M 12.475365,52.469003 L 14.096391,52.469003 C 14.462429,52.469003 14.706455,52.224770 14.706455,51.811454 C 14.706455,51.341776 14.462429,51.172691 13.922088,51.172691 C 13.800074,51.172691 13.660632,51.172691 13.538618,51.172691 L 13.538618,40.839770 C 13.538618,40.576750 13.381744,40.464027 13.050568,40.464027 L 11.307528,40.464027 C 10.854338,40.464027 10.627742,40.689473 10.627742,41.121577 C 10.627742,41.722764 10.993781,41.779126 11.795579,41.779126 L 12.248769,41.779126 L 12.248769,45.292319 C 11.586415,44.409325 10.645171,43.977220 9.4773359,43.977220 C 7.1765264,43.977220 5.4334838,45.893510 5.4334838,48.317048 C 5.4334838,50.890881 7.0719434,52.694449 9.2158798,52.694449 C 10.418576,52.694449 11.464402,52.168408 12.144186,51.247840 L 12.144186,51.999324 C 12.144186,52.318706 12.213909,52.469003 12.475365,52.469003 M 17.557414,47.434052 C 17.888592,45.912297 18.986708,45.010512 20.485721,45.010512 C 21.862720,45.010512 22.943407,45.968658 23.100280,47.434052 L 17.557414,47.434052 M 17.522554,48.636429 L 23.239724,48.636429 C 24.285546,48.636429 24.651585,48.636428 24.651585,47.772221 C 24.651585,45.724425 23.065417,43.751774 20.485721,43.751774 C 17.853734,43.751774 16.040970,45.574129 16.040970,48.204324 C 16.040970,50.947242 17.679429,52.694449 20.311416,52.694449 C 21.461822,52.694449 22.699382,52.393854 23.867218,51.773880 C 24.372699,51.510860 24.616724,51.229053 24.616724,50.853310 C 24.616724,50.515142 24.355268,50.252122 24.024091,50.252122 C 23.257154,50.252122 22.159037,51.398137 20.433430,51.398137 C 18.672962,51.398137 17.609705,50.402417 17.522554,48.636429 M 33.498601,51.153904 L 30.709737,51.153904 L 30.709737,45.555339 L 33.672905,45.555339 C 34.108664,45.555339 34.352691,45.311106 34.352691,44.879003 C 34.352691,44.446899 34.108664,44.221453 33.638044,44.221453 L 30.657446,44.221453 C 30.640016,44.033582 30.640016,43.864497 30.640016,43.695413 C 30.640016,42.380315 31.145499,41.816700 32.435347,41.816700 C 33.184853,41.816700 33.760057,42.042146 34.178386,42.042146 C 34.579285,42.042146 34.875602,41.779126 34.875602,41.384597 C 34.875602,40.727047 34.248107,40.445240 33.010550,40.445240 C 30.413424,40.445240 29.280445,41.365812 29.280445,43.563904 C 29.280445,43.770562 29.297875,43.996007 29.315306,44.221453 L 27.955735,44.221453 C 27.502546,44.221453 27.275949,44.446899 27.275949,44.879003 C 27.275949,45.311106 27.502546,45.555339 27.973166,45.555339 L 29.385028,45.555339 L 29.385028,51.153904 L 27.938305,51.153904 C 27.502546,51.153904 27.258519,51.379350 27.258519,51.811454 C 27.258519,52.243557 27.502546,52.469003 27.973166,52.469003 L 33.533462,52.469003 C 33.986652,52.469003 34.213247,52.243557 34.213247,51.811454 C 34.213247,51.379350 33.969221,51.153904 33.498601,51.153904"
       style="font-size:18.096060;font-style:normal;font-variant:normal;font-weight:normal;font-stretch:normal;fill:#ff0000;fill-opacity:1.0000000;stroke:none;stroke-width:1.0000000px;stroke-linecap:butt;stroke-linejoin:miter;stroke-opacity:1.0000000;font-family:Courier 10 Pitch;text-anchor:start;writing-mode:lr-tb" />
    <path
       id="text1319"
       d="M 51.463756,46.924937 L 51.463756,45.215313 C 51.463756,44.426256 51.376604,44.088088 50.853694,44.088088 C 50.417935,44.088088 50.191341,44.257172 50.191341,44.670488 C 50.191341,44.670488 50.191341,44.689275 50.191341,44.708062 C 49.250102,44.200811 48.396013,43.937791 47.507066,43.937791 C 45.066819,43.937791 43.219199,45.872863 43.219199,48.409116 C 43.219199,50.945370 45.049389,52.861656 47.524496,52.861656 C 49.581276,52.861656 51.498617,51.490198 51.498617,50.625992 C 51.498617,50.250251 51.254591,49.987231 50.905985,49.987231 C 50.452796,49.987231 50.121618,50.438122 49.598708,50.813863 C 48.988646,51.245966 48.291431,51.490199 47.611649,51.490199 C 45.833754,51.490199 44.700779,50.212675 44.700779,48.390329 C 44.700779,46.624346 45.920906,45.365609 47.681370,45.365609 C 48.692329,45.365609 49.494127,45.872861 50.017036,46.868576 C 50.278491,47.375827 50.452796,47.601272 50.818833,47.601272 C 51.237161,47.601272 51.463756,47.375827 51.463756,46.924937 M 62.559265,48.409116 C 62.559265,45.872863 60.816226,43.956578 58.114525,43.956578 C 55.412823,43.956578 53.652354,45.854076 53.652354,48.409116 C 53.652354,50.964158 55.412823,52.861656 58.114525,52.861656 C 60.816226,52.861656 62.559265,50.964158 62.559265,48.409116 M 58.114525,51.584134 C 56.354061,51.584134 55.133935,50.231462 55.133935,48.409116 C 55.133935,46.586772 56.354061,45.215313 58.114525,45.215313 C 59.874989,45.215313 61.095115,46.586772 61.095115,48.409116 C 61.095115,50.250249 59.874989,51.584134 58.114525,51.584134 M 65.427647,51.339901 C 65.357926,51.339901 65.305635,51.339901 65.253344,51.339901 C 64.556130,51.339901 64.259813,51.452624 64.259813,51.978662 C 64.259813,52.410765 64.486409,52.636210 64.974458,52.636210 C 65.201052,52.636210 65.357926,52.636210 65.427647,52.636210 L 66.978948,52.636210 C 67.623871,52.636210 67.885327,52.598636 67.885327,51.978662 C 67.885327,51.471412 67.658731,51.321114 67.066100,51.321114 C 66.961518,51.321114 66.839505,51.339901 66.700063,51.339901 L 66.700063,47.526124 C 66.700063,46.154668 67.885328,45.328035 68.913718,45.328035 C 70.029258,45.328035 70.656752,46.060733 70.656752,47.526124 L 70.656752,51.339901 C 70.552170,51.339901 70.465019,51.339901 70.377867,51.339901 C 69.767805,51.339901 69.523779,51.471412 69.523779,51.978662 C 69.523779,52.579849 69.767805,52.636210 70.377867,52.636210 L 72.260345,52.636210 C 72.870406,52.636210 73.166723,52.504700 73.166723,51.978662 C 73.166723,51.508986 72.905267,51.339901 72.364927,51.339901 C 72.242914,51.339901 72.103472,51.339901 71.981459,51.339901 L 71.981459,47.187956 C 71.981459,45.065018 70.831055,43.919004 69.210033,43.919004 C 68.321086,43.919004 67.536719,44.332320 66.717493,45.158951 L 66.717493,44.538977 C 66.717493,44.313532 66.560619,44.163236 66.229444,44.163236 L 65.427647,44.163236 C 64.643282,44.163236 64.259813,44.163237 64.259813,44.801997 C 64.259813,45.271674 64.503839,45.459545 65.044180,45.459545 C 65.166192,45.459545 65.305635,45.459545 65.427647,45.459545 L 65.427647,51.339901 M 76.244270,47.601272 C 76.575447,46.079520 77.673565,45.177739 79.172568,45.177739 C 80.549561,45.177739 81.630250,46.135881 81.787119,47.601272 L 76.244270,47.601272 M 76.209410,48.803646 L 81.926563,48.803646 C 82.972384,48.803646 83.338425,48.803645 83.338425,47.939440 C 83.338425,45.891649 81.752260,43.919004 79.172568,43.919004 C 76.540589,43.919004 74.727829,45.741354 74.727829,48.371542 C 74.727829,51.114454 76.366285,52.861656 78.998265,52.861656 C 80.148671,52.861656 81.386229,52.561061 82.554060,51.941088 C 83.059536,51.678069 83.303566,51.396262 83.303566,51.020521 C 83.303566,50.682354 83.042111,50.419335 82.710929,50.419335 C 81.943998,50.419335 80.845884,51.565347 79.120275,51.565347 C 77.359817,51.565347 76.296561,50.569629 76.209410,48.803646 M 101.78191,41.852424 C 101.78191,41.589405 101.64247,41.439109 101.45074,41.439109 C 101.04984,41.439109 100.49207,42.021510 99.829715,43.186307 C 98.818754,44.952292 98.330703,46.812217 98.330703,48.878794 C 98.330703,50.945370 98.818754,52.805295 99.829715,54.571280 C 100.49207,55.736078 101.04984,56.318478 101.45074,56.318478 C 101.64247,56.318478 101.78191,56.149395 101.78191,55.886376 C 101.78191,55.529421 101.31129,54.777937 100.82324,53.444055 C 100.28291,51.941089 100.00402,50.494481 100.00402,48.878794 C 100.00402,46.812217 100.45721,45.252885 101.06727,43.693559 C 101.43330,42.754206 101.78191,42.171804 101.78191,41.852424 M 112.47653,51.471412 L 112.56368,52.035024 C 112.63340,52.429552 112.84257,52.636210 113.15631,52.636210 L 114.49845,52.636210 C 114.95163,52.636210 115.17823,52.410765 115.17823,51.978662 C 115.17823,51.433837 114.88191,51.339901 114.16727,51.339901 L 113.73151,51.339901 L 113.73151,47.187956 C 113.73151,44.971083 112.72055,43.937791 110.54175,43.937791 C 108.62442,43.937791 107.36944,44.595339 107.36944,45.234100 C 107.36944,45.703776 107.63089,46.004371 107.94464,46.004371 C 108.60698,46.004371 109.30421,45.234100 110.50690,45.234100 C 111.81417,45.234100 112.42423,45.891649 112.42423,47.300678 C 112.42423,47.319465 112.42423,47.338253 112.42423,47.357040 C 111.72702,47.169170 111.06466,47.075233 110.40231,47.075233 C 107.87491,47.075233 106.46305,48.221248 106.46305,50.118742 C 106.46305,51.734428 107.57860,52.861656 109.28677,52.861656 C 110.45460,52.861656 111.55272,52.373190 112.47653,51.471412 M 112.42423,48.578200 L 112.42423,49.573916 C 112.42423,50.400547 111.02981,51.452624 109.49593,51.452624 C 108.50241,51.452624 107.82262,50.832649 107.82262,50.024806 C 107.82262,48.991517 108.81616,48.258820 110.62891,48.258820 C 111.25640,48.258820 111.84903,48.371542 112.42423,48.578200 M 120.01625,50.081167 L 118.91813,54.740363 C 118.90070,54.815512 118.90070,54.871873 118.90070,54.965808 C 118.90070,55.116105 118.98785,55.228827 119.16215,55.303975 L 119.77222,55.548208 C 119.82451,55.566995 119.87680,55.585783 119.92909,55.585783 C 120.08596,55.585783 120.22541,55.473059 120.31256,55.285188 L 122.64822,50.043593 C 122.70051,49.930871 122.71795,49.836935 122.71795,49.780573 C 122.71795,49.667851 122.61336,49.592703 122.43906,49.592703 L 120.57401,49.592703 C 120.19055,49.592703 120.10340,49.686639 120.01625,50.081167 M 139.80187,45.478332 L 139.80187,41.007006 C 139.80187,40.743987 139.64500,40.631265 139.31382,40.631265 L 138.02397,40.631265 C 137.57078,40.631265 137.34419,40.856710 137.34419,41.288812 C 137.34419,41.758489 137.58822,41.927573 138.12856,41.927573 C 138.25057,41.927573 138.39001,41.946360 138.51203,41.946360 L 138.51203,51.339901 C 138.44230,51.339901 138.39001,51.339901 138.33772,51.339901 C 137.64051,51.339901 137.34419,51.452624 137.34419,51.978662 C 137.34419,52.410765 137.57078,52.636210 138.02397,52.636210 L 139.57528,52.636210 C 139.83673,52.636210 139.92389,52.485913 139.92389,52.166533 L 139.92389,51.433837 C 140.49908,52.354403 141.38803,52.805294 142.57330,52.805294 C 144.85667,52.805294 146.59971,50.870222 146.59971,48.484265 C 146.59971,46.060734 144.89153,44.163236 142.60815,44.163236 C 141.40547,44.163236 140.44680,44.614126 139.80187,45.478332 M 142.45129,51.358689 C 140.86512,51.358689 139.76701,50.118739 139.76701,48.427903 C 139.76701,46.718281 140.88256,45.497119 142.45129,45.497119 C 144.03744,45.497119 145.13555,46.755855 145.13555,48.427903 C 145.13555,50.175101 144.03744,51.358689 142.45129,51.358689 M 150.74050,55.886376 C 150.74050,56.149395 150.87995,56.318478 151.07168,56.318478 C 151.47258,56.318478 152.03035,55.736078 152.69271,54.571280 C 153.70366,52.805295 154.20915,50.945370 154.20915,48.878794 C 154.20915,46.812217 153.70366,44.952292 152.69271,43.186307 C 152.03035,42.021510 151.47258,41.439109 151.07168,41.439109 C 150.87995,41.439109 150.74050,41.589405 150.74050,41.852424 C 150.74050,42.209379 151.21113,42.960864 151.69917,44.294745 C 152.23952,45.797711 152.51840,47.263106 152.51840,48.878794 C 152.51840,50.945370 152.08265,52.504702 151.47258,54.064029 C 151.10654,55.003381 150.74050,55.566995 150.74050,55.886376 M 161.29567,51.133243 C 161.29567,52.072597 161.95803,52.767720 162.96899,52.767720 C 163.97995,52.767720 164.64230,52.091384 164.64230,51.133243 C 164.64230,50.175104 163.97995,49.498767 162.96899,49.498767 C 161.95803,49.498767 161.29567,50.193891 161.29567,51.133243 M 161.29567,46.060732 C 161.29567,47.000084 161.95803,47.695208 162.96899,47.695208 C 163.97995,47.695208 164.64230,47.018871 164.64230,46.060732 C 164.64230,45.102591 163.97995,44.426255 162.96899,44.426255 C 161.95803,44.426255 161.29567,45.121378 161.29567,46.060732"
       style="font-size:18.096014;font-style:normal;font-variant:normal;font-weight:normal;font-stretch:normal;fill:#000000;fill-opacity:1.0000000;stroke:none;stroke-width:1.0000000px;stroke-linecap:butt;stroke-linejoin:miter;stroke-opacity:1.0000000;font-family:Courier 10 Pitch;text-anchor:start;writing-mode:lr-tb" />
    <path
       id="text2842"
       d="M 51.693084,74.442238 L 48.904230,74.442238 L 48.904230,68.843693 L 51.867388,68.843693 C 52.303145,68.843693 52.547171,68.599460 52.547171,68.167358 C 52.547171,67.735256 52.303145,67.509811 51.832527,67.509811 L 48.851939,67.509811 C 48.834509,67.321940 48.834509,67.152857 48.834509,66.983773 C 48.834509,65.668679 49.339990,65.105066 50.629834,65.105066 C 51.379337,65.105066 51.954539,65.330511 52.372868,65.330511 C 52.773764,65.330511 53.070081,65.067492 53.070081,64.672964 C 53.070081,64.015417 52.442588,63.733610 51.205035,63.733610 C 48.607917,63.733610 47.474942,64.654179 47.474942,66.852264 C 47.474942,67.058921 47.492373,67.284366 47.509803,67.509811 L 46.150237,67.509811 C 45.697049,67.509811 45.470453,67.735256 45.470453,68.167358 C 45.470453,68.599460 45.697049,68.843693 46.167667,68.843693 L 47.579524,68.843693 L 47.579524,74.442238 L 46.132806,74.442238 C 45.697049,74.442238 45.453023,74.667684 45.453023,75.099785 C 45.453023,75.531888 45.697049,75.757333 46.167667,75.757333 L 51.727945,75.757333 C 52.181133,75.757333 52.407728,75.531888 52.407728,75.099785 C 52.407728,74.667684 52.163703,74.442238 51.693084,74.442238 M 64.008707,71.530244 C 64.008707,68.993991 62.265670,67.077708 59.563971,67.077708 C 56.862271,67.077708 55.101805,68.975204 55.101805,71.530244 C 55.101805,74.085282 56.862271,75.982778 59.563971,75.982778 C 62.265670,75.982778 64.008707,74.085282 64.008707,71.530244 M 59.563971,74.705257 C 57.803508,74.705257 56.583384,73.352587 56.583384,71.530244 C 56.583384,69.707899 57.803508,68.336442 59.563971,68.336442 C 61.324433,68.336442 62.544559,69.707899 62.544559,71.530244 C 62.544559,73.371374 61.324433,74.705257 59.563971,74.705257 M 69.212753,74.461025 L 69.212753,70.666038 C 70.345723,69.275796 71.304394,68.543100 72.245631,68.543100 C 72.907983,68.543100 73.274021,69.106712 73.727209,69.106712 C 74.093246,69.106712 74.476714,68.693395 74.476714,68.242507 C 74.476714,67.566173 73.849221,67.058921 72.785971,67.058921 C 71.426407,67.058921 70.276002,67.772831 69.212753,69.219434 L 69.212753,67.660108 C 69.212753,67.397089 69.055879,67.284366 68.742133,67.284366 L 66.807366,67.284366 C 66.354177,67.284366 66.127583,67.491024 66.127583,67.923126 C 66.127583,68.392802 66.371607,68.580674 66.929378,68.580674 C 67.016530,68.580674 67.173403,68.580674 67.365137,68.580674 L 67.940338,68.580674 L 67.940338,74.461025 L 66.441329,74.461025 C 65.970710,74.461025 65.726685,74.667684 65.726685,75.099785 C 65.726685,75.531888 65.970710,75.757333 66.423898,75.757333 L 71.984175,75.757333 C 72.489655,75.757333 72.681389,75.625823 72.681389,75.099785 C 72.681389,74.648897 72.472225,74.461025 72.036466,74.461025 L 69.212753,74.461025 M 83.637445,70.647251 L 83.637445,74.836766 C 83.637445,75.437953 83.881476,75.757333 84.352093,75.757333 L 85.380479,75.757333 C 85.781379,75.757333 85.990541,75.531888 85.990541,75.099785 C 85.990541,74.573749 85.746520,74.461025 85.101590,74.461025 C 85.049307,74.461025 84.997014,74.461025 84.944721,74.461025 L 84.944721,70.309084 C 84.944721,68.167360 84.421810,67.040134 82.853080,67.040134 C 82.033856,67.040134 81.423794,67.415877 80.953177,68.167358 C 80.709146,67.415877 80.186236,67.040134 79.401871,67.040134 C 78.739526,67.040134 78.216606,67.284366 77.763423,67.829191 C 77.728564,67.378301 77.641413,67.284366 77.275373,67.284366 L 75.968097,67.284366 C 75.514909,67.284366 75.305744,67.491024 75.305744,67.923126 C 75.305744,68.392802 75.549770,68.580674 76.090110,68.580674 C 76.212122,68.580674 76.351565,68.580674 76.473577,68.580674 L 76.473577,74.461025 C 76.403856,74.461025 76.351565,74.461025 76.299274,74.461025 C 75.602061,74.461025 75.305744,74.573749 75.305744,75.099785 C 75.305744,75.531888 75.514909,75.757333 75.968097,75.757333 L 78.234040,75.757333 C 78.739516,75.757333 78.931254,75.625823 78.931254,75.099785 C 78.931254,74.592536 78.704657,74.442238 78.112030,74.442238 C 78.007444,74.442238 77.885433,74.461025 77.745989,74.461025 L 77.745989,69.407305 C 78.059737,68.768545 78.478071,68.449164 79.000981,68.449164 C 79.645902,68.449164 80.116519,68.993990 80.116519,69.933343 C 80.116519,70.046065 80.116519,70.290297 80.116519,70.647251 L 80.116519,74.517386 C 80.116519,74.611322 80.116519,74.686470 80.116519,74.761618 C 80.116519,75.475527 80.151378,75.757333 80.709146,75.757333 L 81.789825,75.757333 C 82.190725,75.757333 82.382463,75.531888 82.382463,75.099785 C 82.382463,74.573749 82.138432,74.461025 81.493512,74.461025 C 81.441219,74.461025 81.388935,74.461025 81.336642,74.461025 L 81.336642,70.647251 C 81.336642,69.181861 81.929270,68.449164 82.713635,68.449164 C 83.567728,68.449164 83.637445,69.257009 83.637445,70.647251 M 88.858918,72.375662 L 88.858918,67.979488 C 88.858918,67.941914 88.858918,67.923126 88.858918,67.885552 C 88.858918,67.472237 88.841494,67.284366 88.370876,67.284366 L 87.081026,67.284366 C 86.627843,67.284366 86.401246,67.491024 86.401246,67.923126 C 86.401246,68.392802 86.645267,68.580674 87.185611,68.580674 C 87.307622,68.580674 87.447067,68.580674 87.569077,68.580674 L 87.569077,72.713829 C 87.569077,74.855551 88.510321,75.945204 90.375365,75.945204 C 91.403751,75.945204 92.135824,75.513101 93.024775,74.761618 L 93.024775,75.381591 C 93.024775,75.607036 93.181644,75.757333 93.512817,75.757333 L 94.802667,75.757333 C 95.255851,75.757333 95.482447,75.531888 95.482447,75.099785 C 95.482447,74.630110 95.238426,74.461025 94.698082,74.461025 C 94.576071,74.461025 94.436627,74.461025 94.314616,74.461025 L 94.314616,68.167358 C 94.314616,67.622533 94.314616,67.284366 93.721988,67.284366 L 91.909227,67.284366 C 91.438610,67.284366 91.229448,67.472237 91.229448,67.923126 C 91.229448,68.374015 91.403751,68.580674 91.856944,68.580674 L 93.024775,68.580674 L 93.024775,72.375662 C 93.024775,73.728328 91.926662,74.592535 90.776255,74.592535 C 89.451555,74.592535 88.858918,73.878625 88.858918,72.375662 M 100.93052,65.067492 L 100.93052,74.461025 L 98.577420,74.461025 C 98.106803,74.461025 97.862782,74.667684 97.862782,75.099785 C 97.862782,75.531888 98.089379,75.757333 98.542562,75.757333 L 104.81748,75.757333 C 105.32296,75.757333 105.51470,75.625823 105.51470,75.099785 C 105.51470,74.648897 105.30553,74.461025 104.86978,74.461025 L 102.22037,74.461025 L 102.22037,64.128139 C 102.22037,63.902694 102.06349,63.752397 101.73232,63.752397 L 98.926027,63.752397 C 98.472844,63.752397 98.246248,63.977843 98.246248,64.409945 C 98.246248,64.879621 98.490269,65.048705 99.048047,65.048705 C 99.135199,65.048705 99.292068,65.067492 99.483806,65.067492 L 100.93052,65.067492 M 113.92592,74.592535 L 114.01308,75.156147 C 114.08280,75.550675 114.29196,75.757333 114.60571,75.757333 L 115.94785,75.757333 C 116.40103,75.757333 116.62763,75.531888 116.62763,75.099785 C 116.62763,74.554962 116.33131,74.461025 115.61666,74.461025 L 115.18091,74.461025 L 115.18091,70.309084 C 115.18091,68.092212 114.16994,67.058921 111.99116,67.058921 C 110.07382,67.058921 108.81883,67.716469 108.81883,68.355229 C 108.81883,68.824905 109.08029,69.125499 109.39404,69.125499 C 110.05639,69.125499 110.75360,68.355229 111.95629,68.355229 C 113.26357,68.355229 113.87363,69.012777 113.87363,70.421807 C 113.87363,70.440594 113.87363,70.459381 113.87363,70.478168 C 113.17642,70.290297 112.51406,70.196362 111.85172,70.196362 C 109.32432,70.196362 107.91246,71.342374 107.91246,73.239867 C 107.91246,74.855553 109.02800,75.982778 110.73617,75.982778 C 111.90400,75.982778 113.00211,75.494313 113.92592,74.592535 M 113.87363,71.699327 L 113.87363,72.695042 C 113.87363,73.521672 112.47920,74.573748 110.94534,74.573748 C 109.95180,74.573748 109.27203,73.953774 109.27203,73.145931 C 109.27203,72.112644 110.26555,71.379947 112.07831,71.379947 C 112.70580,71.379947 113.29844,71.492669 113.87363,71.699327 M 129.14479,72.187791 L 136.76184,72.187791 C 137.11045,72.187791 137.30219,71.962345 137.30219,71.511456 C 137.30219,71.060567 137.11045,70.835122 136.76184,70.835122 L 129.14479,70.835122 C 128.79618,70.835122 128.60444,71.060567 128.60444,71.511456 C 128.60444,71.962345 128.79618,72.187791 129.14479,72.187791 M 129.14479,69.106712 L 136.76184,69.106712 C 137.11045,69.106712 137.30219,68.881266 137.30219,68.430377 C 137.30219,67.979488 137.11045,67.754043 136.76184,67.754043 L 129.14479,67.754043 C 128.79618,67.754043 128.60444,67.979488 128.60444,68.430377 C 128.60444,68.881266 128.79618,69.106712 129.14479,69.106712 M 155.65851,64.973557 C 155.65851,64.710538 155.51907,64.560241 155.32733,64.560241 C 154.92644,64.560241 154.36866,65.142641 153.70631,66.307439 C 152.69536,68.073421 152.20731,69.933345 152.20731,71.999920 C 152.20731,74.066495 152.69536,75.926419 153.70631,77.692401 C 154.36866,78.857198 154.92644,79.439598 155.32733,79.439598 C 155.51907,79.439598 155.65851,79.270515 155.65851,79.007496 C 155.65851,78.650541 155.18789,77.899058 154.69985,76.565177 C 154.15950,75.062213 153.88061,73.615606 153.88061,71.999920 C 153.88061,69.933345 154.33380,68.374014 154.94387,66.814689 C 155.30991,65.875337 155.65851,65.292937 155.65851,64.973557"
       style="font-size:18.095999;font-style:normal;font-variant:normal;font-weight:normal;font-stretch:normal;fill:#000000;fill-opacity:1.0000000;stroke:none;stroke-width:1.0000000px;stroke-linecap:butt;stroke-linejoin:miter;stroke-opacity:1.0000000;font-family:Courier 10 Pitch;text-anchor:start;writing-mode:lr-tb" />
    <path
       id="text2847"
       d="M 165.87135,68.722306 C 167.05661,68.271417 167.59695,67.444786 167.59695,66.167270 C 167.59695,64.532800 166.34197,63.161345 164.51179,63.161345 C 162.78619,63.161345 161.44406,64.213420 161.44406,64.833391 C 161.44406,65.171557 161.68808,65.415789 162.00182,65.415789 C 162.52473,65.415789 163.16966,64.438863 164.42464,64.438863 C 165.43559,64.438863 166.18510,65.246706 166.18510,66.430289 C 166.18510,67.332065 165.59247,68.027185 164.70352,68.177482 C 163.81458,68.327777 163.55312,68.196270 163.55312,68.872601 C 163.55312,69.680443 164.00631,69.417426 164.87782,69.586509 C 165.90621,69.793165 166.51627,70.601009 166.51627,71.690656 C 166.51627,72.986960 165.60989,73.926312 164.23290,73.926312 C 162.87334,73.926312 162.00182,72.986961 161.49635,72.986961 C 161.14774,72.986961 160.86885,73.249980 160.86885,73.625720 C 160.86885,74.452348 162.36787,75.335339 164.18061,75.335339 C 166.46398,75.335339 167.96299,73.776013 167.96299,71.690656 C 167.96299,70.206482 167.21348,69.116833 165.87135,68.722306 M 173.35876,73.531785 C 173.35876,74.471135 174.02111,75.166255 175.03206,75.166255 C 176.04302,75.166255 176.70537,74.489922 176.70537,73.531785 C 176.70537,72.573647 176.04302,71.897313 175.03206,71.897313 C 174.02111,71.897313 173.35876,72.592434 173.35876,73.531785 M 183.47813,65.190344 L 185.08172,64.777030 L 185.08172,73.738441 L 183.66987,73.738441 C 182.86808,73.738441 182.50204,73.776017 182.50204,74.377201 C 182.50204,74.809302 182.72863,75.034747 183.18181,75.034747 L 188.27146,75.034747 C 188.72465,75.034747 188.95125,74.809302 188.95125,74.377201 C 188.95125,73.776017 188.58521,73.738441 187.78342,73.738441 L 186.42385,73.738441 L 186.42385,63.818891 C 186.42385,63.443151 186.28441,63.217706 186.07524,63.217706 C 185.97067,63.217706 185.84865,63.236493 185.70921,63.274067 L 183.18181,64.006762 C 182.81578,64.119483 182.62405,64.344928 182.62405,64.645520 C 182.62405,64.983686 182.85064,65.227918 183.21667,65.227918 C 183.30382,65.227918 183.39098,65.209131 183.47813,65.190344 M 195.79373,75.034747 L 198.54771,75.034747 C 199.00091,75.034747 199.22750,74.809302 199.22750,74.377201 C 199.22750,73.869951 198.94861,73.738441 198.26883,73.738441 C 198.18168,73.738441 198.07710,73.738441 197.97252,73.738441 L 197.97252,72.197906 L 198.68716,72.197906 C 199.05320,72.197906 199.15778,72.028821 199.22750,71.634295 L 199.29722,71.258554 C 199.33208,71.108258 199.33208,70.995536 199.33208,70.939175 C 199.33208,70.676157 199.15778,70.488286 198.93118,70.488286 C 198.65230,70.488286 198.75688,70.807665 198.40828,70.807665 L 197.97252,70.807665 L 197.97252,63.837678 C 197.97252,63.555873 197.88537,63.405577 197.71107,63.368003 L 196.83955,63.217706 C 196.75240,63.198919 196.68268,63.198919 196.61295,63.198919 C 196.42122,63.198919 196.33407,63.274067 196.19463,63.537086 L 192.60398,70.112546 C 192.46454,70.356776 192.29024,70.563434 192.29024,70.995536 L 192.29024,71.634295 C 192.29024,72.010035 192.46454,72.197906 192.74343,72.197906 L 196.71754,72.197906 L 196.71754,73.738441 L 195.72401,73.738441 C 195.28825,73.738441 195.09651,73.926312 195.09651,74.377201 C 195.09651,74.903237 195.28825,75.034747 195.79373,75.034747 M 196.71754,70.807665 L 193.49293,70.807665 L 196.71754,64.589159 L 196.71754,70.807665 M 217.46177,67.162982 L 217.67093,64.532799 C 217.67093,64.495225 217.67093,64.457651 217.67093,64.420076 C 217.67093,64.194633 217.58378,64.157057 217.30490,64.157057 L 216.62512,64.157057 C 216.34623,64.157057 216.25908,64.194633 216.25908,64.420076 C 216.25908,64.457651 216.25908,64.495225 216.25908,64.532799 L 216.48568,67.162982 L 214.23717,66.110908 C 214.15001,66.073334 214.08030,66.073334 214.02800,66.073334 C 213.92342,66.073334 213.87113,66.167270 213.80141,66.392714 L 213.57481,67.087834 C 213.53995,67.219343 213.52253,67.332066 213.52253,67.369640 C 213.52253,67.463574 213.62710,67.538722 213.80141,67.576297 L 216.17193,68.158695 L 214.56834,70.150120 C 214.48119,70.244055 214.44633,70.319203 214.44633,70.413138 C 214.44633,70.469499 214.51606,70.563434 214.67292,70.676157 L 215.21326,71.108258 C 215.35270,71.220979 215.43986,71.258554 215.47471,71.258554 C 215.54444,71.258554 215.63159,71.183406 215.70131,71.051897 L 216.97373,68.778667 L 218.22870,71.051897 C 218.29843,71.202192 218.36815,71.258554 218.45530,71.258554 C 218.50759,71.258554 218.57731,71.202193 218.71675,71.108258 L 219.27452,70.676157 C 219.43140,70.563434 219.48368,70.469499 219.48368,70.413138 C 219.48368,70.319203 219.43140,70.244055 219.36167,70.150120 L 217.75808,68.158695 L 220.14604,67.576297 C 220.32034,67.538722 220.40749,67.463574 220.40749,67.350853 C 220.40749,67.313279 220.39006,67.238130 220.35520,67.087834 L 220.14604,66.392714 C 220.07632,66.167270 220.04145,66.073334 219.91944,66.073334 C 219.88458,66.073334 219.79743,66.092121 219.71028,66.129695 L 217.46177,67.162982 M 236.27125,73.531785 C 236.27125,74.471135 236.93359,75.166255 237.94456,75.166255 C 238.95551,75.166255 239.61786,74.489922 239.61786,73.531785 C 239.61786,72.573647 238.95551,71.897313 237.94456,71.897313 C 236.93359,71.897313 236.27125,72.592434 236.27125,73.531785 M 249.75467,68.722306 C 250.93993,68.271417 251.48027,67.444786 251.48027,66.167270 C 251.48027,64.532800 250.22529,63.161345 248.39511,63.161345 C 246.66951,63.161345 245.32738,64.213420 245.32738,64.833391 C 245.32738,65.171557 245.57140,65.415789 245.88515,65.415789 C 246.40806,65.415789 247.05298,64.438863 248.30796,64.438863 C 249.31891,64.438863 250.06842,65.246706 250.06842,66.430289 C 250.06842,67.332065 249.47579,68.027185 248.58684,68.177482 C 247.69790,68.327777 247.43644,68.196270 247.43644,68.872601 C 247.43644,69.680443 247.88963,69.417426 248.76114,69.586509 C 249.78953,69.793165 250.39959,70.601009 250.39959,71.690656 C 250.39959,72.986960 249.49321,73.926312 248.11622,73.926312 C 246.75666,73.926312 245.88515,72.986961 245.37967,72.986961 C 245.03106,72.986961 244.75217,73.249980 244.75217,73.625720 C 244.75217,74.452348 246.25119,75.335339 248.06393,75.335339 C 250.34730,75.335339 251.84631,73.776013 251.84631,71.690656 C 251.84631,70.206482 251.09680,69.116833 249.75467,68.722306 M 260.24008,68.722306 C 261.42535,68.271417 261.96568,67.444786 261.96568,66.167270 C 261.96568,64.532800 260.71070,63.161345 258.88052,63.161345 C 257.15493,63.161345 255.81279,64.213420 255.81279,64.833391 C 255.81279,65.171557 256.05681,65.415789 256.37056,65.415789 C 256.89347,65.415789 257.53839,64.438863 258.79337,64.438863 C 259.80433,64.438863 260.55383,65.246706 260.55383,66.430289 C 260.55383,67.332065 259.96120,68.027185 259.07225,68.177482 C 258.18331,68.327777 257.92186,68.196270 257.92186,68.872601 C 257.92186,69.680443 258.37505,69.417426 259.24656,69.586509 C 260.27494,69.793165 260.88500,70.601009 260.88500,71.690656 C 260.88500,72.986960 259.97863,73.926312 258.60164,73.926312 C 257.24208,73.926312 256.37056,72.986961 255.86508,72.986961 C 255.51648,72.986961 255.23759,73.249980 255.23759,73.625720 C 255.23759,74.452348 256.73660,75.335339 258.54935,75.335339 C 260.83271,75.335339 262.33172,73.776013 262.33172,71.690656 C 262.33172,70.206482 261.58222,69.116833 260.24008,68.722306 M 280.37426,67.162982 L 280.58343,64.532799 C 280.58343,64.495225 280.58343,64.457651 280.58343,64.420076 C 280.58343,64.194633 280.49627,64.157057 280.21739,64.157057 L 279.53760,64.157057 C 279.25873,64.157057 279.17157,64.194633 279.17157,64.420076 C 279.17157,64.457651 279.17157,64.495225 279.17157,64.532799 L 279.39817,67.162982 L 277.14966,66.110908 C 277.06251,66.073334 276.99278,66.073334 276.94050,66.073334 C 276.83591,66.073334 276.78362,66.167270 276.71390,66.392714 L 276.48731,67.087834 C 276.45245,67.219343 276.43501,67.332066 276.43501,67.369640 C 276.43501,67.463574 276.53960,67.538722 276.71390,67.576297 L 279.08442,68.158695 L 277.48083,70.150120 C 277.39368,70.244055 277.35882,70.319203 277.35882,70.413138 C 277.35882,70.469499 277.42854,70.563434 277.58542,70.676157 L 278.12575,71.108258 C 278.26520,71.220979 278.35235,71.258554 278.38721,71.258554 C 278.45693,71.258554 278.54408,71.183406 278.61380,71.051897 L 279.88621,68.778667 L 281.14119,71.051897 C 281.21092,71.202192 281.28064,71.258554 281.36779,71.258554 C 281.42008,71.258554 281.48980,71.202193 281.62925,71.108258 L 282.18701,70.676157 C 282.34388,70.563434 282.39618,70.469499 282.39618,70.413138 C 282.39618,70.319203 282.34388,70.244055 282.27417,70.150120 L 280.67058,68.158695 L 283.05853,67.576297 C 283.23283,67.538722 283.31999,67.463574 283.31999,67.350853 C 283.31999,67.313279 283.30255,67.238130 283.26769,67.087834 L 283.05853,66.392714 C 282.98880,66.167270 282.95395,66.073334 282.83194,66.073334 C 282.79708,66.073334 282.70992,66.092121 282.62277,66.129695 L 280.37426,67.162982 M 292.30640,73.869951 L 292.39355,74.433562 C 292.46327,74.828089 292.67243,75.034747 292.98618,75.034747 L 294.32831,75.034747 C 294.78149,75.034747 295.00809,74.809302 295.00809,74.377201 C 295.00809,73.832378 294.71178,73.738441 293.99713,73.738441 L 293.56138,73.738441 L 293.56138,69.586509 C 293.56138,67.369642 292.55042,66.336353 290.37163,66.336353 C 288.45430,66.336353 287.19932,66.993900 287.19932,67.632658 C 287.19932,68.102333 287.46077,68.402926 287.77452,68.402926 C 288.43686,68.402926 289.13408,67.632658 290.33677,67.632658 C 291.64404,67.632658 292.25410,68.290205 292.25410,69.699231 C 292.25410,69.718018 292.25410,69.736805 292.25410,69.755592 C 291.55689,69.567722 290.89454,69.473786 290.23219,69.473786 C 287.70480,69.473786 286.29294,70.619797 286.29294,72.517285 C 286.29294,74.132968 287.40848,75.260191 289.11665,75.260191 C 290.28447,75.260191 291.38259,74.771727 292.30640,73.869951 M 292.25410,70.976749 L 292.25410,71.972461 C 292.25410,72.799089 290.85968,73.851164 289.32582,73.851164 C 288.33229,73.851164 287.65250,73.231192 287.65250,72.423350 C 287.65250,71.390064 288.64604,70.657370 290.45878,70.657370 C 291.08627,70.657370 291.67890,70.770092 292.25410,70.976749"
       style="font-size:18.095961;font-style:normal;font-variant:normal;font-weight:normal;font-stretch:normal;fill:#00ff00;fill-opacity:1.0000000;stroke:none;stroke-width:1.0000000px;stroke-linecap:butt;stroke-linejoin:miter;stroke-opacity:1.0000000;font-family:Courier 10 Pitch;text-anchor:start;writing-mode:lr-tb" />
    <path
       id="text3610"
       d="M 297.80327,78.284861 C 297.80327,78.547879 297.94272,78.716963 298.13445,78.716963 C 298.53534,78.716963 299.09312,78.134565 299.75547,76.969770 C 300.76643,75.203792 301.27191,73.343874 301.27191,71.277303 C 301.27191,69.210733 300.76643,67.350814 299.75547,65.584836 C 299.09312,64.420042 298.53534,63.837643 298.13445,63.837643 C 297.94272,63.837643 297.80327,63.987940 297.80327,64.250957 C 297.80327,64.607911 298.27390,65.359393 298.76194,66.693270 C 299.30229,68.196230 299.58117,69.661621 299.58117,71.277303 C 299.58117,73.343874 299.14541,74.903199 298.53535,76.462521 C 298.16931,77.401871 297.80327,77.965482 297.80327,78.284861"
       style="font-size:18.095953;font-style:normal;font-variant:normal;font-weight:normal;font-stretch:normal;fill:#000000;fill-opacity:1.0000000;stroke:none;stroke-width:1.0000000px;stroke-linecap:butt;stroke-linejoin:miter;stroke-opacity:1.0000000;font-family:Courier 10 Pitch;text-anchor:start;writing-mode:lr-tb" />
    <text
       id="text3614"
       y="96.5"
       x="331"
       style="font-size:12.000000;font-style:normal;font-weight:normal;fill:#000000;fill-opacity:1.0000000;stroke:none;stroke-width:1.0000000px;stroke-linecap:butt;stroke-linejoin:miter;stroke-opacity:1.0000000;font-family:Bitstream Vera Sans"
       xml:space="preserve"><tspan
         y="96.500000"
         x="331.00000"
         id="tspan3616"
         sodipodi:role="line"></tspan></text>
    <path
       id="text3622"
       d="M 311.03479,66.163080 L 311.24396,63.532893 C 311.24396,63.495319 311.24396,63.457745 311.24396,63.420171 C 311.24396,63.194726 311.15680,63.157152 310.87792,63.157152 L 310.19814,63.157152 C 309.91926,63.157152 309.83210,63.194726 309.83210,63.420171 C 309.83210,63.457745 309.83210,63.495319 309.83210,63.532893 L 310.05869,66.163080 L 307.81018,65.111006 C 307.72303,65.073432 307.65331,65.073432 307.60102,65.073432 C 307.49643,65.073432 307.44415,65.167367 307.37442,65.392811 L 307.14783,66.087932 C 307.11297,66.219441 307.09554,66.332163 307.09554,66.369737 C 307.09554,66.463673 307.20012,66.538821 307.37442,66.576395 L 309.74495,67.158794 L 308.14136,69.150221 C 308.05421,69.244157 308.01934,69.319305 308.01934,69.413240 C 308.01934,69.469601 308.08907,69.563537 308.24594,69.676259 L 308.78628,70.108361 C 308.92573,70.221083 309.01288,70.258657 309.04774,70.258657 C 309.11746,70.258657 309.20461,70.183509 309.27433,70.051999 L 310.54674,67.778766 L 311.80172,70.051999 C 311.87145,70.202296 311.94117,70.258657 312.02832,70.258657 C 312.08061,70.258657 312.15033,70.202296 312.28978,70.108361 L 312.84754,69.676259 C 313.00442,69.563537 313.05671,69.469601 313.05671,69.413240 C 313.05671,69.319305 313.00442,69.244157 312.93470,69.150221 L 311.33111,67.158794 L 313.71906,66.576395 C 313.89336,66.538821 313.98052,66.463673 313.98052,66.350950 C 313.98052,66.313377 313.96308,66.238228 313.92822,66.087932 L 313.71906,65.392811 C 313.64934,65.167367 313.61448,65.073432 313.49247,65.073432 C 313.45761,65.073432 313.37045,65.092219 313.28330,65.129793 L 311.03479,66.163080 M 322.75777,63.251087 C 322.75777,62.988069 322.61833,62.837773 322.42660,62.837773 C 322.02570,62.837773 321.46793,63.420172 320.80558,64.584968 C 319.79462,66.350949 319.30657,68.210871 319.30657,70.277444 C 319.30657,72.344018 319.79462,74.203939 320.80558,75.969921 C 321.46793,77.134717 322.02570,77.717116 322.42660,77.717116 C 322.61833,77.717116 322.75777,77.548032 322.75777,77.285014 C 322.75777,76.928060 322.28716,76.176577 321.79911,74.842698 C 321.25877,73.339735 320.97988,71.893129 320.97988,70.277444 C 320.97988,68.210871 321.43307,66.651542 322.04313,65.092219 C 322.40917,64.152866 322.75777,63.570467 322.75777,63.251087 M 382.20171,77.285014 C 382.20171,77.548032 382.34116,77.717116 382.53288,77.717116 C 382.93378,77.717116 383.49155,77.134717 384.15391,75.969921 C 385.16487,74.203939 385.67035,72.344018 385.67035,70.277444 C 385.67035,68.210871 385.16487,66.350949 384.15391,64.584968 C 383.49155,63.420172 382.93378,62.837773 382.53288,62.837773 C 382.34116,62.837773 382.20171,62.988069 382.20171,63.251087 C 382.20171,63.608041 382.67233,64.359524 383.16038,65.693404 C 383.70072,67.196366 383.97960,68.661760 383.97960,70.277444 C 383.97960,72.344018 383.54385,73.903346 382.93378,75.462670 C 382.56774,76.402022 382.20171,76.965634 382.20171,77.285014"
       style="font-size:18.095984;font-style:normal;font-variant:normal;font-weight:normal;font-stretch:normal;fill:#000000;fill-opacity:1.0000000;stroke:none;stroke-width:1.0000000px;stroke-linecap:butt;stroke-linejoin:miter;stroke-opacity:1.0000000;font-family:Courier 10 Pitch;text-anchor:start;writing-mode:lr-tb" />
    <path
       id="text3626"
       d="M 327.35038,67.376918 L 327.35038,62.905601 C 327.35038,62.642583 327.19351,62.529860 326.86233,62.529860 L 325.57249,62.529860 C 325.11931,62.529860 324.89271,62.755305 324.89271,63.187407 C 324.89271,63.657082 325.13673,63.826166 325.67708,63.826166 C 325.79909,63.826166 325.93853,63.844953 326.06054,63.844953 L 326.06054,73.238475 C 325.99082,73.238475 325.93853,73.238475 325.88624,73.238475 C 325.18903,73.238475 324.89271,73.351198 324.89271,73.877234 C 324.89271,74.309335 325.11931,74.534781 325.57249,74.534781 L 327.12379,74.534781 C 327.38524,74.534781 327.47239,74.384484 327.47239,74.065104 L 327.47239,73.332410 C 328.04760,74.252974 328.93655,74.703864 330.12180,74.703864 C 332.40517,74.703864 334.14821,72.768797 334.14821,70.382844 C 334.14821,67.959318 332.44003,66.061824 330.15666,66.061824 C 328.95397,66.061824 327.99530,66.512715 327.35038,67.376918 M 329.99979,73.257262 C 328.41364,73.257262 327.31553,72.017315 327.31553,70.326483 C 327.31553,68.616864 328.43106,67.395705 329.99979,67.395705 C 331.58595,67.395705 332.68406,68.654438 332.68406,70.326483 C 332.68406,72.073676 331.58595,73.257262 329.99979,73.257262 M 351.00550,66.663010 L 351.21466,64.032824 C 351.21466,63.995249 351.21466,63.957675 351.21466,63.920101 C 351.21466,63.694657 351.12751,63.657083 350.84863,63.657083 L 350.16884,63.657083 C 349.88996,63.657083 349.80281,63.694657 349.80281,63.920101 C 349.80281,63.957675 349.80281,63.995249 349.80281,64.032824 L 350.02941,66.663010 L 347.78090,65.610935 C 347.69374,65.573361 347.62402,65.573361 347.57172,65.573361 C 347.46715,65.573361 347.41486,65.667296 347.34514,65.892741 L 347.11854,66.587862 C 347.08368,66.719370 347.06625,66.832093 347.06625,66.869667 C 347.06625,66.963602 347.17083,67.038750 347.34514,67.076324 L 349.71566,67.658723 L 348.11207,69.650150 C 348.02492,69.744085 347.99006,69.819233 347.99006,69.913168 C 347.99006,69.969529 348.05978,70.063464 348.21665,70.176187 L 348.75699,70.608289 C 348.89643,70.721011 348.98359,70.758585 349.01844,70.758585 C 349.08816,70.758585 349.17531,70.683436 349.24504,70.551928 L 350.51745,68.278696 L 351.77243,70.551928 C 351.84216,70.702223 351.91188,70.758585 351.99903,70.758585 C 352.05132,70.758585 352.12104,70.702223 352.26048,70.608289 L 352.81825,70.176187 C 352.97513,70.063464 353.02741,69.969529 353.02741,69.913168 C 353.02741,69.819233 352.97513,69.744085 352.90540,69.650150 L 351.30181,67.658723 L 353.68977,67.076324 C 353.86407,67.038750 353.95122,66.963602 353.95122,66.850880 C 353.95122,66.813307 353.93380,66.738157 353.89893,66.587862 L 353.68977,65.892741 C 353.62005,65.667296 353.58519,65.573361 353.46317,65.573361 C 353.42831,65.573361 353.34116,65.592148 353.25401,65.629722 L 351.00550,66.663010 M 369.29208,67.376918 L 369.29208,62.905601 C 369.29208,62.642583 369.13521,62.529860 368.80403,62.529860 L 367.51419,62.529860 C 367.06100,62.529860 366.83441,62.755305 366.83441,63.187407 C 366.83441,63.657082 367.07843,63.826166 367.61877,63.826166 C 367.74078,63.826166 367.88023,63.844953 368.00224,63.844953 L 368.00224,73.238475 C 367.93252,73.238475 367.88023,73.238475 367.82793,73.238475 C 367.13072,73.238475 366.83441,73.351198 366.83441,73.877234 C 366.83441,74.309335 367.06100,74.534781 367.51419,74.534781 L 369.06548,74.534781 C 369.32694,74.534781 369.41409,74.384484 369.41409,74.065104 L 369.41409,73.332410 C 369.98929,74.252974 370.87824,74.703864 372.06350,74.703864 C 374.34687,74.703864 376.08990,72.768797 376.08990,70.382844 C 376.08990,67.959318 374.38173,66.061824 372.09836,66.061824 C 370.89567,66.061824 369.93700,66.512715 369.29208,67.376918 M 371.94149,73.257262 C 370.35533,73.257262 369.25722,72.017315 369.25722,70.326483 C 369.25722,68.616864 370.37276,67.395705 371.94149,67.395705 C 373.52764,67.395705 374.62576,68.654438 374.62576,70.326483 C 374.62576,72.073676 373.52764,73.257262 371.94149,73.257262"
       style="font-size:18.095976;font-style:normal;font-variant:normal;font-weight:normal;font-stretch:normal;fill:#00ff00;fill-opacity:1.0000000;stroke:none;stroke-width:1.0000000px;stroke-linecap:butt;stroke-linejoin:miter;stroke-opacity:1.0000000;font-family:Courier 10 Pitch;text-anchor:start;writing-mode:lr-tb" />
    <path
       id="text4392"
       d="M 48.710273,97.238491 L 48.710273,93.443505 C 49.843243,92.053266 50.801912,91.320575 51.743148,91.320575 C 52.405500,91.320575 52.771537,91.884187 53.224725,91.884187 C 53.590761,91.884187 53.974229,91.470874 53.974229,91.019978 C 53.974229,90.343650 53.346737,89.836401 52.283488,89.836401 C 50.923925,89.836401 49.773522,90.550311 48.710273,91.996903 L 48.710273,90.437585 C 48.710273,90.174560 48.553400,90.061843 48.239655,90.061843 L 46.304890,90.061843 C 45.851703,90.061843 45.625108,90.268495 45.625108,90.700600 C 45.625108,91.170276 45.869133,91.358147 46.426903,91.358147 C 46.514054,91.358147 46.670927,91.358147 46.862660,91.358147 L 47.437861,91.358147 L 47.437861,97.238491 L 45.938853,97.238491 C 45.468235,97.238491 45.224210,97.445153 45.224210,97.877247 C 45.224210,98.309352 45.468235,98.534795 45.921423,98.534795 L 51.481694,98.534795 C 51.987172,98.534795 52.178907,98.403287 52.178907,97.877247 C 52.178907,97.426362 51.969742,97.238491 51.533984,97.238491 L 48.710273,97.238491 M 57.191212,93.499869 C 57.522387,91.978122 58.620499,91.076341 60.119505,91.076341 C 61.496498,91.076341 62.577179,92.034486 62.734052,93.499869 L 57.191212,93.499869 M 57.156351,94.702237 L 62.873495,94.702237 C 63.919312,94.702237 64.285350,94.702237 64.285350,93.838038 C 64.285350,91.790252 62.699188,89.817610 60.119505,89.817610 C 57.487530,89.817610 55.674774,91.639953 55.674774,94.270143 C 55.674774,97.013048 57.313226,98.760248 59.945202,98.760248 C 61.095601,98.760248 62.333156,98.459650 63.500986,97.839675 C 64.006465,97.576660 64.250489,97.294854 64.250489,96.919113 C 64.250489,96.580944 63.989034,96.317929 63.657859,96.317929 C 62.890926,96.317929 61.792813,97.463934 60.067214,97.463934 C 58.306754,97.463934 57.243502,96.468217 57.156351,94.702237 M 72.836009,90.569092 L 69.489389,90.569092 L 69.489389,88.709177 C 69.489389,87.807395 69.419667,87.431654 68.809607,87.431654 C 68.356419,87.431654 68.147254,87.694679 68.147254,88.201928 C 68.147254,88.446151 68.147254,88.615241 68.147254,88.690385 L 68.147254,90.569092 L 67.206017,90.569092 C 66.386793,90.569092 66.038186,90.625456 66.038186,91.226640 C 66.038186,91.677525 66.247351,91.865396 66.717968,91.865396 L 68.147254,91.865396 L 68.147254,94.927690 C 68.147254,95.021625 68.147254,95.115561 68.147254,95.209496 C 68.147254,96.054904 68.164685,96.787606 68.461000,97.332426 C 68.949048,98.252989 69.855426,98.703884 71.162698,98.703884 C 71.964492,98.703884 72.853440,98.459650 73.916688,98.008765 C 74.544179,97.745740 74.857925,97.482725 74.857925,97.050620 C 74.857925,96.712451 74.579040,96.393073 74.265295,96.393073 C 73.585514,96.393073 72.452541,97.369998 71.075547,97.369998 C 69.576542,97.369998 69.471959,96.393073 69.471959,94.927690 L 69.471959,91.865396 L 72.923161,91.865396 C 73.393779,91.865396 73.637804,91.658744 73.637804,91.226640 C 73.637804,90.756963 73.376349,90.569092 72.836009,90.569092 M 78.841839,95.153133 L 78.841839,90.756963 C 78.841839,90.719391 78.841839,90.700600 78.841839,90.663028 C 78.841839,90.249714 78.824414,90.061843 78.353797,90.061843 L 77.063950,90.061843 C 76.610762,90.061843 76.384168,90.268495 76.384168,90.700600 C 76.384168,91.170276 76.628192,91.358147 77.168532,91.358147 C 77.290544,91.358147 77.429987,91.358147 77.551997,91.358147 L 77.551997,95.491302 C 77.551997,97.633013 78.493241,98.722665 80.358276,98.722665 C 81.386672,98.722665 82.118744,98.290571 83.007686,97.539088 L 83.007686,98.159053 C 83.007686,98.384506 83.164564,98.534795 83.495737,98.534795 L 84.785578,98.534795 C 85.238771,98.534795 85.465358,98.309352 85.465358,97.877247 C 85.465358,97.407581 85.221337,97.238491 84.681002,97.238491 C 84.558982,97.238491 84.419547,97.238491 84.297527,97.238491 L 84.297527,90.944834 C 84.297527,90.400013 84.297527,90.061843 83.704899,90.061843 L 81.892148,90.061843 C 81.421531,90.061843 81.212368,90.249714 81.212368,90.700600 C 81.212368,91.151485 81.386672,91.358147 81.839855,91.358147 L 83.007686,91.358147 L 83.007686,95.153133 C 83.007686,96.505800 81.909572,97.369998 80.759176,97.369998 C 79.434476,97.369998 78.841839,96.656088 78.841839,95.153133 M 90.651972,97.238491 L 90.651972,93.443505 C 91.784944,92.053266 92.743612,91.320575 93.684847,91.320575 C 94.347192,91.320575 94.713233,91.884187 95.166426,91.884187 C 95.532457,91.884187 95.915922,91.470874 95.915922,91.019978 C 95.915922,90.343650 95.288436,89.836401 94.225182,89.836401 C 92.865623,89.836401 91.715217,90.550311 90.651972,91.996903 L 90.651972,90.437585 C 90.651972,90.174560 90.495093,90.061843 90.181355,90.061843 L 88.246583,90.061843 C 87.793400,90.061843 87.566804,90.268495 87.566804,90.700600 C 87.566804,91.170276 87.810825,91.358147 88.368603,91.358147 C 88.455755,91.358147 88.612624,91.358147 88.804352,91.358147 L 89.379555,91.358147 L 89.379555,97.238491 L 87.880552,97.238491 C 87.409935,97.238491 87.165904,97.445153 87.165904,97.877247 C 87.165904,98.309352 87.409935,98.534795 87.863118,98.534795 L 93.423392,98.534795 C 93.928868,98.534795 94.120605,98.403287 94.120605,97.877247 C 94.120605,97.426362 93.911443,97.238491 93.475685,97.238491 L 90.651972,97.238491 M 98.801734,97.238491 C 98.732007,97.238491 98.679723,97.238491 98.627431,97.238491 C 97.930217,97.238491 97.633903,97.351218 97.633903,97.877247 C 97.633903,98.309352 97.860499,98.534795 98.348541,98.534795 C 98.575138,98.534795 98.732007,98.534795 98.801734,98.534795 L 100.35303,98.534795 C 100.99795,98.534795 101.25941,98.497223 101.25941,97.877247 C 101.25941,97.369998 101.03281,97.219710 100.44018,97.219710 C 100.33560,97.219710 100.21359,97.238491 100.07414,97.238491 L 100.07414,93.424725 C 100.07414,92.053266 101.25941,91.226640 102.28779,91.226640 C 103.40333,91.226640 104.03083,91.959331 104.03083,93.424725 L 104.03083,97.238491 C 103.92625,97.238491 103.83909,97.238491 103.75195,97.238491 C 103.14188,97.238491 102.89785,97.369998 102.89785,97.877247 C 102.89785,98.478442 103.14188,98.534795 103.75195,98.534795 L 105.63442,98.534795 C 106.24448,98.534795 106.54079,98.403287 106.54079,97.877247 C 106.54079,97.407581 106.27934,97.238491 105.73900,97.238491 C 105.61698,97.238491 105.47755,97.238491 105.35553,97.238491 L 105.35553,93.086555 C 105.35553,90.963625 104.20513,89.817610 102.58411,89.817610 C 101.69516,89.817610 100.91080,90.230923 100.09158,91.057560 L 100.09158,90.437585 C 100.09158,90.212142 99.934706,90.061843 99.603524,90.061843 L 98.801734,90.061843 C 98.017369,90.061843 97.633903,90.061843 97.633903,90.700600 C 97.633903,91.170276 97.877924,91.358147 98.418268,91.358147 C 98.540279,91.358147 98.679723,91.358147 98.801734,91.358147 L 98.801734,97.238491"
       style="font-size:18.095976;font-style:normal;font-variant:normal;font-weight:normal;font-stretch:normal;fill:#ff0000;fill-opacity:1.0000000;stroke:none;stroke-width:1.0000000px;stroke-linecap:butt;stroke-linejoin:miter;stroke-opacity:1.0000000;font-family:Courier 10 Pitch;text-anchor:start;writing-mode:lr-tb" />
    <path
       id="text4395"
       d="M 121.16146,97.219750 L 118.37262,97.219750 L 118.37262,91.621200 L 121.33576,91.621200 C 121.77152,91.621200 122.01555,91.376980 122.01555,90.944870 C 122.01555,90.512770 121.77152,90.287330 121.30090,90.287330 L 118.32032,90.287330 C 118.30289,90.099450 118.30289,89.930380 118.30289,89.761290 C 118.30289,88.446190 118.80837,87.882580 120.09821,87.882580 C 120.84772,87.882580 121.42291,88.108030 121.84125,88.108030 C 122.24214,88.108030 122.53846,87.845010 122.53846,87.450480 C 122.53846,86.792940 121.91097,86.511130 120.67342,86.511130 C 118.07630,86.511130 116.94333,87.431690 116.94333,89.629780 C 116.94333,89.836440 116.96075,90.061880 116.97819,90.287330 L 115.61862,90.287330 C 115.16544,90.287330 114.93884,90.512770 114.93884,90.944870 C 114.93884,91.376980 115.16544,91.621200 115.63605,91.621200 L 117.04791,91.621200 L 117.04791,97.219750 L 115.60119,97.219750 C 115.16544,97.219750 114.92141,97.445190 114.92141,97.877300 C 114.92141,98.309390 115.16544,98.534840 115.63605,98.534840 L 121.19633,98.534840 C 121.64951,98.534840 121.87611,98.309390 121.87611,97.877300 C 121.87611,97.445190 121.63208,97.219750 121.16146,97.219750 M 133.47708,94.307750 C 133.47708,91.771500 131.73404,89.855220 129.03234,89.855220 C 126.33065,89.855220 124.57018,91.752720 124.57018,94.307750 C 124.57018,96.862790 126.33065,98.760290 129.03234,98.760290 C 131.73404,98.760290 133.47708,96.862790 133.47708,94.307750 M 129.03234,97.482760 C 127.27188,97.482760 126.05176,96.130100 126.05176,94.307750 C 126.05176,92.485410 127.27188,91.113950 129.03234,91.113950 C 130.79280,91.113950 132.01292,92.485410 132.01292,94.307750 C 132.01292,96.148880 130.79280,97.482760 129.03234,97.482760 M 138.68112,97.238530 L 138.68112,93.443540 C 139.81409,92.053310 140.77276,91.320610 141.71399,91.320610 C 142.37635,91.320610 142.74238,91.884230 143.19557,91.884230 C 143.56160,91.884230 143.94508,91.470910 143.94508,91.020020 C 143.94508,90.343690 143.31758,89.836440 142.25434,89.836440 C 140.89477,89.836440 139.74436,90.550340 138.68112,91.996940 L 138.68112,90.437620 C 138.68112,90.174600 138.52424,90.061880 138.21050,90.061880 L 136.27573,90.061880 C 135.82255,90.061880 135.59595,90.268530 135.59595,90.700640 C 135.59595,91.170320 135.83997,91.358190 136.39775,91.358190 C 136.48490,91.358190 136.64177,91.358190 136.83350,91.358190 L 137.40870,91.358190 L 137.40870,97.238530 L 135.90970,97.238530 C 135.43908,97.238530 135.19505,97.445190 135.19505,97.877300 C 135.19505,98.309390 135.43908,98.534840 135.89226,98.534840 L 141.45254,98.534840 C 141.95801,98.534840 142.14975,98.403330 142.14975,97.877300 C 142.14975,97.426400 141.94059,97.238530 141.50483,97.238530 L 138.68112,97.238530 M 153.10580,93.424760 L 153.10580,97.614270 C 153.10580,98.215460 153.34982,98.534840 153.82044,98.534840 L 154.84883,98.534840 C 155.24973,98.534840 155.45889,98.309390 155.45889,97.877300 C 155.45889,97.351260 155.21487,97.238530 154.56995,97.238530 C 154.51765,97.238530 154.46536,97.238530 154.41308,97.238530 L 154.41308,93.086590 C 154.41308,90.944870 153.89016,89.817650 152.32144,89.817650 C 151.50221,89.817650 150.89215,90.193390 150.42152,90.944870 C 150.17750,90.193390 149.65459,89.817650 148.87023,89.817650 C 148.20788,89.817650 147.68497,90.061880 147.23178,90.606700 C 147.19692,90.155820 147.10977,90.061880 146.74373,90.061880 L 145.43645,90.061880 C 144.98327,90.061880 144.77411,90.268530 144.77411,90.700640 C 144.77411,91.170320 145.01813,91.358190 145.55847,91.358190 C 145.68048,91.358190 145.81993,91.358190 145.94194,91.358190 L 145.94194,97.238530 C 145.87221,97.238530 145.81993,97.238530 145.76763,97.238530 C 145.07042,97.238530 144.77411,97.351260 144.77411,97.877300 C 144.77411,98.309390 144.98327,98.534840 145.43645,98.534840 L 147.70240,98.534840 C 148.20787,98.534840 148.39961,98.403330 148.39961,97.877300 C 148.39961,97.370050 148.17301,97.219750 147.58039,97.219750 C 147.47580,97.219750 147.35379,97.238530 147.21434,97.238530 L 147.21434,92.184810 C 147.52809,91.546060 147.94643,91.226680 148.46933,91.226680 C 149.11426,91.226680 149.58487,91.771500 149.58487,92.710850 C 149.58487,92.823580 149.58487,93.067810 149.58487,93.424760 L 149.58487,97.294890 C 149.58487,97.388830 149.58487,97.463980 149.58487,97.539130 C 149.58487,98.253040 149.61973,98.534840 150.17750,98.534840 L 151.25818,98.534840 C 151.65908,98.534840 151.85082,98.309390 151.85082,97.877300 C 151.85082,97.351260 151.60679,97.238530 150.96187,97.238530 C 150.90957,97.238530 150.85728,97.238530 150.80500,97.238530 L 150.80500,93.424760 C 150.80500,91.959370 151.39763,91.226680 152.18199,91.226680 C 153.03607,91.226680 153.10580,92.034520 153.10580,93.424760 M 158.32726,95.153170 L 158.32726,90.757000 C 158.32726,90.719430 158.32726,90.700640 158.32726,90.663070 C 158.32726,90.249750 158.30984,90.061880 157.83922,90.061880 L 156.54937,90.061880 C 156.09619,90.061880 155.86959,90.268530 155.86959,90.700640 C 155.86959,91.170320 156.11362,91.358190 156.65396,91.358190 C 156.77597,91.358190 156.91541,91.358190 157.03742,91.358190 L 157.03742,95.491340 C 157.03742,97.633060 157.97867,98.722710 159.84370,98.722710 C 160.87210,98.722710 161.60417,98.290610 162.49311,97.539130 L 162.49311,98.159100 C 162.49311,98.384550 162.64999,98.534840 162.98116,98.534840 L 164.27100,98.534840 C 164.72420,98.534840 164.95079,98.309390 164.95079,97.877300 C 164.95079,97.407620 164.70676,97.238530 164.16643,97.238530 C 164.04442,97.238530 163.90497,97.238530 163.78296,97.238530 L 163.78296,90.944870 C 163.78296,90.400050 163.78296,90.061880 163.19033,90.061880 L 161.37757,90.061880 C 160.90696,90.061880 160.69779,90.249750 160.69779,90.700640 C 160.69779,91.151520 160.87210,91.358190 161.32528,91.358190 L 162.49311,91.358190 L 162.49311,95.153170 C 162.49311,96.505840 161.39501,97.370050 160.24460,97.370050 C 158.91990,97.370050 158.32726,96.656140 158.32726,95.153170 M 170.39885,87.845010 L 170.39885,97.238530 L 168.04577,97.238530 C 167.57515,97.238530 167.33112,97.445190 167.33112,97.877300 C 167.33112,98.309390 167.55772,98.534840 168.01090,98.534840 L 174.28582,98.534840 C 174.79130,98.534840 174.98303,98.403330 174.98303,97.877300 C 174.98303,97.426400 174.77387,97.238530 174.33811,97.238530 L 171.68870,97.238530 L 171.68870,86.905650 C 171.68870,86.680210 171.53183,86.529910 171.20065,86.529910 L 168.39437,86.529910 C 167.94118,86.529910 167.71458,86.755370 167.71458,87.187460 C 167.71458,87.657140 167.95862,87.826230 168.51638,87.826230 C 168.60354,87.826230 168.76041,87.845010 168.95214,87.845010 L 170.39885,87.845010 M 183.39425,97.370050 L 183.48140,97.933650 C 183.55112,98.328180 183.76029,98.534840 184.07403,98.534840 L 185.41616,98.534840 C 185.86936,98.534840 186.09595,98.309390 186.09595,97.877300 C 186.09595,97.332470 185.79964,97.238530 185.08499,97.238530 L 184.64923,97.238530 L 184.64923,93.086590 C 184.64923,90.869730 183.63827,89.836440 181.45949,89.836440 C 179.54215,89.836440 178.28717,90.493990 178.28717,91.132740 C 178.28717,91.602420 178.54862,91.903010 178.86236,91.903010 C 179.52472,91.903010 180.22193,91.132740 181.42462,91.132740 C 182.73190,91.132740 183.34196,91.790290 183.34196,93.199320 C 183.34196,93.218100 183.34196,93.236890 183.34196,93.255670 C 182.64474,93.067810 181.98240,92.973880 181.32004,92.973880 C 178.79265,92.973880 177.38079,94.119880 177.38079,96.017370 C 177.38079,97.633060 178.49633,98.760290 180.20451,98.760290 C 181.37234,98.760290 182.47044,98.271820 183.39425,97.370050 M 183.34196,94.476830 L 183.34196,95.472550 C 183.34196,96.299180 181.94753,97.351260 180.41367,97.351260 C 179.42014,97.351260 178.74035,96.731280 178.74035,95.923440 C 178.74035,94.890160 179.73389,94.157460 181.54664,94.157460 C 182.17413,94.157460 182.76676,94.270180 183.34196,94.476830"
       style="font-size:18.095984;font-style:normal;font-variant:normal;font-weight:normal;font-stretch:normal;fill:#000000;fill-opacity:1.0000000;stroke:none;stroke-width:1.0000000px;stroke-linecap:butt;stroke-linejoin:miter;stroke-opacity:1.0000000;font-family:Courier 10 Pitch;text-anchor:start;writing-mode:lr-tb" />
  </g>
</svg>
